/* XPM */
static char *mktcoin64[] = {
/* columns rows colors chars-per-pixel */
"64 64 241 2 ",
"   c #0A0B0C",
".  c #06080A",
"X  c #111014",
"o  c #1D1E23",
"O  c #2E2F31",
"+  c #433E2F",
"@  c #554D39",
"#  c #785925",
"$  c #69573A",
"%  c #765D39",
"&  c #766234",
"*  c #3E3E40",
"=  c #48484A",
"-  c #54524F",
";  c #695C47",
":  c #736956",
">  c #686767",
",  c #7B7875",
"<  c #767168",
"1  c #87672C",
"2  c #866935",
"3  c #8C7136",
"4  c #9A7C3C",
"5  c #96793B",
"6  c #936E33",
"7  c #A57E3B",
"8  c #987D44",
"9  c #897850",
"0  c #877B65",
"q  c #807E7B",
"w  c #9A813C",
"e  c #AB833D",
"r  c #A5833B",
"t  c #B48B3B",
"y  c #BA933C",
"u  c #C8973B",
"i  c #D29B3D",
"p  c #D39738",
"a  c #9D854B",
"s  c #96835B",
"d  c #8D8257",
"f  c #AC8542",
"g  c #AC8A44",
"h  c #A68949",
"j  c #B28B45",
"k  c #B48D49",
"l  c #AC914A",
"z  c #B49146",
"x  c #B8974B",
"c  c #A98D54",
"v  c #B49B53",
"b  c #B89855",
"n  c #AC9655",
"m  c #BCA458",
"M  c #BFA24F",
"N  c #978869",
"B  c #89857A",
"V  c #988C76",
"C  c #968D76",
"Z  c #A28C66",
"A  c #A7936C",
"S  c #A99977",
"D  c #B59E70",
"F  c #B7A46A",
"G  c #B9A776",
"H  c #B3B072",
"J  c #C29D4A",
"K  c #D39E41",
"L  c #C19D52",
"P  c #C8A74C",
"I  c #D6A244",
"U  c #DAA546",
"Y  c #DDAB4C",
"T  c #D8A64A",
"R  c #C4A354",
"E  c #CBAB5A",
"W  c #C8A958",
"Q  c #D7AC54",
"!  c #CBB15E",
"~  c #DEB051",
"^  c #DAB85A",
"/  c #D2B34F",
"(  c #E2B453",
")  c #E5BA5B",
"_  c #E9BD5E",
"`  c #E4B858",
"'  c #E1AF4F",
"]  c #CCAD62",
"[  c #C4AB67",
"{  c #CCB364",
"}  c #D5BB6C",
"|  c #D5B765",
" . c #C8AE7A",
".. c #CBB478",
"X. c #D8BD78",
"o. c #E4BC64",
"O. c #E9BE63",
"+. c #E9BE69",
"@. c #EBC15F",
"#. c #E4C55A",
"$. c #F0CF5E",
"%. c #DBC26B",
"&. c #DDC777",
"*. c #ECC464",
"=. c #E4C36C",
"-. c #EBC36C",
";. c #EECA6B",
":. c #E9C864",
">. c #F2CC6B",
",. c #F1C866",
"<. c #F4D16E",
"1. c #F7D86C",
"2. c #E4C572",
"3. c #EBC573",
"4. c #ECCB73",
"5. c #EDCD7B",
"6. c #E4CA78",
"7. c #F1CC73",
"8. c #EDD275",
"9. c #ECD47C",
"0. c #EBD77A",
"q. c #F5D372",
"w. c #F9D674",
"e. c #F9D976",
"r. c #F2D47B",
"t. c #F3DB7C",
"y. c #F9DA7C",
"u. c #F7D976",
"i. c #F6E27D",
"p. c #DFC254",
"a. c #7F7F80",
"s. c #807D80",
"d. c #7F8081",
"f. c #848484",
"g. c #8C8A86",
"h. c #8B8B8C",
"j. c #878788",
"k. c #97948C",
"l. c #8D8E91",
"z. c #939494",
"x. c #9C9C9C",
"c. c #999896",
"v. c #8F9090",
"b. c #A69C84",
"n. c #A19F99",
"m. c #B7AA87",
"M. c #AAA599",
"N. c #B6AD96",
"B. c #BAB197",
"V. c #B1A88B",
"C. c #9B9DA2",
"Z. c #A3A4A4",
"A. c #ACACAC",
"S. c #A8A8A7",
"D. c #B6B3AA",
"F. c #B3B3B3",
"G. c #BBBBBB",
"H. c #B8B8B5",
"J. c #B0AEAB",
"K. c #9EA0A0",
"L. c #C7B88A",
"P. c #C5B99A",
"I. c #CFB889",
"U. c #C3BCA8",
"Y. c #C1BDB6",
"T. c #BCD88D",
"R. c #DAC684",
"E. c #D7C697",
"W. c #D3D08E",
"Q. c #E8CC85",
"!. c #ECD586",
"~. c #F4DB82",
"^. c #F9DB83",
"/. c #F6DA8B",
"(. c #FBDD8C",
"). c #F2D586",
"_. c #E1CD96",
"`. c #E8D598",
"'. c #F4DB93",
"]. c #FBDE93",
"[. c #F4DD9B",
"{. c #FBDF99",
"}. c #F0D696",
"|. c #F3CF86",
" X c #D8E89B",
".X c #CEE493",
"XX c #F6E484",
"oX c #FAE584",
"OX c #FCE28B",
"+X c #F8E78B",
"@X c #FBE195",
"#X c #FCE29C",
"$X c #FAE896",
"%X c #F1E999",
"&X c #C8C3AA",
"*X c #D5CBA9",
"=X c #DAD4A9",
"-X c #C3C2BE",
";X c #CAC5B4",
":X c #DAD4B7",
">X c #CFD2AE",
",X c #E9D8A6",
"<X c #F4DDA3",
"1X c #F4DDAC",
"2X c #E8DAB8",
"3X c #F3DFB2",
"4X c #D6E8AB",
"5X c #E6E7A9",
"6X c #FCE4A3",
"7X c #FEE5AB",
"8X c #F7E8AA",
"9X c #FDE6B3",
"0X c #FEE8B5",
"qX c #FDEABB",
"wX c #F6E5B8",
"eX c #FCF3B8",
"rX c #F0EBB5",
"tX c #BEBEC1",
"yX c #C0BFC0",
"uX c #BFC2C2",
"iX c #C3C3C3",
"pX c #CBCCCC",
"aX c #C7C7C6",
"sX c #D4D4D4",
"dX c #D9D9DB",
"fX c #CFD0CE",
"gX c #FCECC4",
"hX c #F8E9C9",
"jX c #FFF7C9",
"kX c #FCEED2",
"lX c #FCF2D5",
"zX c #EAE9D0",
"xX c #E3E3E3",
"cX c #ECECEC",
"vX c #E8E7E9",
"bX c #FCF7E6",
"nX c #F3F3F3",
"mX c #FEFEFE",
"MX c #FAF9F7",
"NX c #DDE8D7",
"BX c None",
/* pixels */
"BXBXBXBXBXBXBXBXBXBXBXBXBXBXBXBXBXBXBXBXBXBXBXBXBXBXBXBX`.E.`.`._.`._.,XBXBXBXBXBXBXBXBXBXBXBXBXBXBXBXBXBXBXBXBXBXBXBXBXBXBXBXBX",
"BXBXBXBXBXBXBXBXBXBXBXBXBXBXBXBXBXBXBXBXBXBXBX,X_.5.o.+.+.+.=.O.O.=.+.+.+.} 5.`.,XBXBXBXBXBXBXBXBXBXBXBXBXBXBXBXBXBXBXBXBXBXBXBX",
"BXBXBXBXBXBXBXBXBXBXBXBXBXBXBXBXBXBXBXBX,XQ.=.-.-.-.-.3.O.+.^ ^ ^ ^ o.+.7.+.+.-.+.O.Q.<XBXBXBXBXBXBXBXBXBXBXBXBXBXBXBXBXBXBXBXBX",
"BXBXBXBXBXBXBXBXBXBXBXBXBXBXBXBXBXBXW.+.-.-.-.-.^ ]  .S b.c.n.n.c.v.g.0 0 N n W 3.3.+.*.3.`.BXBXBXBXBXBXBXBXBXBXBXBXBXBXBXBXBXBX",
"BXBXBXBXBXBXBXBXBXBXBXBXBXBXBXBX_.=.;.=.;.o.} B.H.G.G.F.A.A.A.Z.C.n.x.c.c.z.z.s.: d R 7.-.-.=.`.BXBXBXBXBXBXBXBXBXBXBXBXBXBXBXBX",
"BXBXBXBXBXBXBXBXBXBXBXBXBXBX X6.=.-.-.:.I.G.iXyXyXG.G.F.H.D.D.B.P.N.M.Z.c.k.z.v.h.h.s.; c =.-.-.Q.5XBXBXBXBXBXBXBXBXBXBXBXBXBXBX",
"BXBXBXBXBXBXBXBXBXBXBXBXBXW.+.-.=.:.R.uXiXiXiXiXY.I.Q.+.O.-.O.+.o.O.+.+.3.X.L.b.h.h.j.j.h.; c 4.+.-._.BXBXBXBXBXBXBXBXBXBXBXBXBX",
"BXBXBXBXBXBXBXBXBXBXBXBX6.;.3.;.&.F.tXiX-X-XE.=.*.+.+.3.o.Q E Q Q R Q o.3.3.+.+.4...k.j.j.j.f.$ ] 3.3.6.BXBXBXBXBXBXBXBXBXBXBXBX",
"BXBXBXBXBXBXBXBXBXBXBX5.3.4.:.B.H.H.tXG.R.*.=.-.=.^ P t j x b b b b k 5 1 5 x E 3.-.+.R.k.B f.j.> 8 4.;.3.BXBXBXBXBXBXBXBXBXBXBX",
"BXBXBXBXBXBXBXBXBXBXwX5.-.| Z.D.F.H.I.;.-.=.:./ P x m 4.oXoXe.e.3.<.w.w.^ 7 7 8 # x +.-.*.I.h.f.j.f.% =.4.4.BXBXBXBXBXBXBXBXBXBX",
"BXBXBXBXBXBXBXBXBXkX8X;.[ S.J.J.B.3.;.-.:.^ P { #XOX^.^.y.y.r.}.[ <.>.>.*.,.*.>.7 f # h +.-.7.b.s.j.j.$ =.4.3.BXBXBXBXBXBXBXBXBX",
"BXBXBXBXBXBXBXBX}.[.Q.F S.Z.A.L.;.4.:.$.R Q.#X@X].'.OX(.^.(./.2XV.^.).7.>.>.,.*.@._ L 5 # R 7.3.L.f.f.j.$ 2.4.5.BXBXBXBXBXBXBXBX",
"BXBXBXBXBXBXBX!.6.4.v C.K.S.E.3.;.:.^ X.9X6X6X#X{.].].(.(.R.sXMXcXsXG w.>.>.>.*.*.*._ @.7 8 3 3.;.R.f.f.j.$ 4.;.!.BXBXBXBXBXBXBX",
"BXBXBXBXBXBXW.8.8.v C.M.C.:X!.-.p.E 8X0X7X7X6X6X#X@X@X(.(.^.`.xXpX .7.q.<.<.>.,.*.*._ O.` ) 6 # =.-.6.f.f.h.$ 8.5.}.BXBXBXBXBXBX",
"BXBXBXBXBX5X4.q.J k.x.c.*X8X!.^ ^ qX0X9X9X7X7X6X6X6X}.].(.(.*XS L.b.q.q.q.=.>.>.>.*.*._ _ ) *.1 & +.3.R.f.f.g.2 8.8.4XBXBXBXBXBX",
"BXBXBXBXBX|.r.] C c.z.B.|.8.E o.qX0X0X9X9X9X7X7X6X2XL.{.].].`.).5.&.7.u.w.,X[ >.>.,.,.*.*._ ` _ 6 2 3.4.I.f.f., v 8.|.BXBXBXBXBX",
"BXBXBXBX Xq.5.8 z.l.M.r.4.P =.7X7X7X0X0X0X0X7X2XhXxXS.wX:X}.{./.)./.).Q.}.zXN./.6.>.>.*.*.O.O.` _ 6 2 7.7.N.f.j.; 5.8.[.BXBXBXBX",
"BXBXBXBX5.r.g v.l.k.8.8.M :.6X6X7X7X7X0XqX0X9X0XM.vXxXb.6X].].]./.(.y.Q.J.MXxXc.>.>.>.>.*.*.*.) ) *.3 2 q.~.v.j.j.3 r.5.BXBXBXBX",
"BXBXBX,X8.=.9 z.z.L.q.E #.(.#X#X6X7X7X0X0X0XqX9X2XY.tXL.{.{.{.].@X(.(.^.,XiXpX[ q.7.>.>.>.*.*.*.*.` o.2 l 8.E.f.f.: } 4.5XBXBXBX",
"BXBXBX).t.a z.l.c.r.8.x r.].{.#X#X6X7X7X9X0X0X9XJ.,X,Xk.[.[.6X{.{.OX(.^.M.6.&.b.4.q.<.>.>.>.,.*.O._ ) t 2 0.q.S.f.v.9 5.r.BXBXBX",
"BXBX X0.2.9 h.l.R.8.l 1.(.(.].{.#X#X6X7X7X9X9X9XwX1X1X1X<X6X#X#X@X].(././.8.4.4.<.q.q.7.>.>.>.*.*._ _ @.h 5 u.`.f.f.: &.q.5XBXBX",
"BXBX`.r.r c.v.c.t.6.M u.(.(.].].].#X#X6X7X7X9X0XqX9X9X9X7X7X6X6X#X#X{.{.'.(./.).e.e.w.w.<.>.>.>.*.*._ _ Q # 6.9.J.h.f.8 r.[.BXBX",
"BXBX0.+X% z.z.P.r.f i.^.^.^.(.(.].{.#X6X6X6X9X7XqX9X0X9X9X7X7X6X6X#X@X].(.(.(.^.^.e.w.w.q.<.<.>.,.,.*.O.O.g 8 r.=Xq h.$ +X0.BXBX",
"BX8X0.] N l.l./.oXt 1.y.^.^.(.(.].].@X#X6X6X7X7X9X0X0X0X9X9X7X7X6X#X#X@X].(.(.^.^.y.e.w.w.q.<.>.>.>.,.*._ R # OX{.v.h.< ! 0..XBX",
"BX.Xe.4 x.z.M.t.M #.y.t.y.i.^.(.(.].].].#X#X6X7X7X0X9X0X9X9X9X7X7X6X6X#X@X@X(.(./.^.y.e.w.w.w.<.>.>.>.,.*.,.8 v 8.H.h.j.a y. XBX",
"BX%XOX2 K.z.B.i.a 1.e.e.y.y.^.^.(.{.'.].@X#X#X6X7X0XwX9XqXqXqX3X7X7X6X6X#X[.].@X(.(.(.y.^.).2.w.<.>.>.>.*.O.g h t.=X, h.; oX@XBX",
"BX~.+X; C.z.!.+X4 ,.w.e.e.e.y.`.F.iX= d ].@X@XfXF.A.  qX:XF.F.. eX0XpXD.z.- hXA.tXG.G.F.x., : w.q.q.>.>.>.*.P 2 +XeXq h.; XXt.BX",
"kXt.%.0 K.z.$X&.x >.<.q.u.e.y.[.pXmXS.X $X@X6XF.mXiXX eX;XmXG.. jX0XG.mX> S &XmXMXsXcXcXmXs.& e.e.q.<.<.>.,.<.# 6.+XZ.j.> %.~.rX",
"5XXXm k.S.J.XXv p.;.>.<.w.w.e.@XaXmXxXO F (.*XxXmXG.  eX*XnXG.  jX2XfXdX= E.eXqXgXaXcXo ..OXOXe.e.q.q.>.;.;.u.h v i.A.z.d.m i.4X",
" XXXl J.F.D.i.a ;.:.;.>.q.w.u.@XiXmXnXv.+ (.F.mXmXH.  eX*XnXF.. jXF.mXq B 7X6X6XwXiXcXO ..^.^.y.e.e.w.q.<.<.<.m h 0.;Xd.j.n i.5X",
"8XXXw iXD.D.oXh :.:.*.;.;.<.w.OXuXmXdXpX  *XfXfXmXF.. eX&XcXdXmXA.nXZ.K.qX7X7X6XwXiXvXO X.(.^.y.^.e.w.w.<.<.1.v n i.&Xd.d.l i.8X",
"8XXX5 uXA.&Xi.c #.@.*.*.>.<.q./.iXsXz.dXf.S.fXj.cXF.  8XE.cXmXmXcXxX> 0 1X<X7X6XwXuXvXO ../.Q.Q.5.7.e.e.u.1.8.M n i.&Xd.l.a XX8X",
"8XXX4 iXF.>XXXc ^ ) _ *.,.>.>.'.tXfXO dXtXnX, f.nXF.. 6XP.cXdXF.G.mXaXo L.E.,X_.*XaXvXO  ...F v F } y.e.e.e.q.x b XX&Xj.h.a XX8X",
"8XXXw pXtX>XXXn ` ` ) _ O.*.>.'.aXsXo M.mXcX- g.nXH..  .M.nXG.. 2XdXvXc.@ V.L._.2XaXcXO D G F ..!.^.^.^.e.e.e.R m XX&Xj.l.n XXrX",
"eXXXh fXuX;X+Xh ^ ( ` ) _ *.*.!.pXsXo S xXS.= V.nXG.X F N.MXyX. ..H.mXsXO V L.3XhXpXMXO 9  ._.].(.(.^.^.e.e.e.W n XXU.h.h.v +XeX",
"rX+Xm -XaXpXXXl %.( ( ` ) _ O.Q.pXsXo { pX> d P.MXiX  @XB.mXaX. 6X,XsXnXC.+ 9X9X2XsXnX* S 6X#X@X].].(./.^.^.y.] m XXY.z.d.%.XXeX",
"lXXX&.M.pXiX+Xm R ' ~ ( ` #._ } D.D.< %.*X* X.E.D.G.- OXE.F.F.- 6X6XU.J.A.> gX9X2XJ.D.> G 6X#X#X].].(.(.(.^.OXz %.+XA.v.q 6.i.jX",
"BX+X+XN pXiX%X~.w U ' ' ( ` ` _ }.1XwXq.<.8X].w.9XqXqX/.^.gXgXgX#X#X9XkXkXkX9X9X9XkXkXkXqX7X6X<X#X#X].(.(.^.~.4 !.%Xv.z.< +X+XBX",
"BX%X$Xd sXpX5X$Xw u U ' ' ~ ) ) 5.}.<Xo.!.8X<X;.6X8X9X6.).8XrXqX|./.gXgXhX3X<X9X0XkXkXkX3X<X7X7X6X#X#X].(.(.| l +X5Xz.z.d +X%XBX",
"BX%X+Xa xXfX=XXXa P U Y ' ~ ( ) 3.}.}.| }.}.#X=.%X6X6X2.2.6X8X9XQ.`.9XqXqX_.`.7X9XhXhXhX1X,X<X<X6X#X#X@X@X(.| m i.>Xx.K.v +X8XBX",
"BXrXXXm aXfXfXi.m v U U T Y ~ ~ +.Q.Q.-.|.}./.5./.'.@X8.6.{.#X6X~.6X8X9X<X'.[.<X<XqXhXhX9X1X,X<X<X6X6X#X#X$Xl } XXH.K.z.%.i. XBX",
"BXzX!.+XC dXfX`.+X3 u I U Y Y ' o.+.3.3.5.5.r.).)./.(.e.t./.@X@X#X#X6X6X'.{.6X6X<X9XqXgXqXwX1X1X1X6X6X6X#X%.x +X%XS.K.N XX!.BXBX",
"BXBX%Xi.a xXsX>X0.w E i U U T ' ~ o.o.+.-.*.-.7.q.r.y.w.e.^.^./.(.OX'.{.].{.{.6X6X7X0X0X0X0X0X9X7X7X7X6X6X{ M 0.=XA.S.F XX%XBXBX",
"BXBXrXi.%.H.dXsXQ.0.6 y K U U T Y ' ( ` ` O.*.,.;.>.q.w.w.e.y.^.~.^.^.(.(.].].#X#X6X7X9X9X0X0X0X0X9X7X7X6.M 0.0.-XF.K.6.0.5XBXBX",
"BXBXBX0.0.A dXdX*X9.5 m i K I I Y Y Y ( ` ) O.*.*.,.>.q.w.e.e.e.^.y.^.(.(.(.].{.#X6X6X7X7X9X0X0X0X0X0X0XE W 0. XuXH.H 0.0.BXBXBX",
"BXBXBX X0.m aXsXsX&.0.3 t i K I T Y Y ( ( ` _ _ *.*.>.>.<.w.e.e.y.y.^.^.^.(.(.].].#X6X6X7X7X9X0XgXgXlXR.W 8.&.fXpXuX%.0.5XBXBXBX",
"BXBXBXzX6.0.A NXsX>X=.m r u i K I U T ' ~ ( ` ) _ *.*.;.>.q.w.e.t.y.y.~.^.(.(.(.].@X#X#X6X6X7X9XkXbXbX2X[.&.=XdXsXm.8.&.bXBXBXBX",
"BXBXBXBX X2.} J.sXsXR.%.3 x i i K I T Y Y ~ ` ` ) _ *.,.>.>.q.w.e.e.y.y.^.^.(.(.].].].6X#X6X7X7XkXbXhX3XR.&.cXxX-X6.2.5XBXBXBXBX",
"BXBXBXBXBX&.6.c NXsXfX} %.# x i i K K U Y Y ' ` ` ` O.*.,.,.>.7.w.e.e.e.y.^.^.^.(.(.@X@X#X6X6X7XjX2XrXhXR.MXcXxX=X6.&.BXBXBXBXBX",
"BXBXBXBXBX5X%.6.S sXfX;X| } 1 z i p K I U Y Y ' ( ` _ O.O.,.>.>.<.w.e.u.e.y.^.i.(.(.(.].@X#X6X7X^ Q._.} zXMXMXzX_.&..XBXBXBXBXBX",
"BXBXBXBXBXBX_.%.} M.dXfX&X] ] # z i i K I U Y ' '  .b.` _ O.*.,.>.<.w.w.y.e.i.y.^.(.(.(.].@XOXp.#.} { =XmXMXnXhXQ._.BXBXBXBXBXBX",
"BXBXBXBXBXBXBX%.} { Y.fXfXP.E ] # g y p K I T Y I.S N L ` | } ,.;.>.w.w.4._.@ i.^.^.(.^.].~.^ $.] E E.cXcXMX,X,X_.BXBXBXBXBXBXBX",
"BXBXBXBXBXBXBX4X{ | ] -XpXpXU.P ] 8 3 t i K T U 9 2 ` ( 2.U.c.2 *.b.n y.x., o 0.y.^.^.^.1.#.^ R R &XdXxXcX}.X.} 4XBXBXBXBXBXBXBX",
"BXBXBXBXBXBXBXBX,X! { ] -XfXaXY.L R b # k t K K W U.J ' 0 3 s 9 @.9 8 <.< q > 9 ^.y.1.` ^ P R R U.pXsXdX} } ] 4XBXBXBXBXBXBXBXBX",
"BXBXBXBXBXBXBXBXBXT.W E ] H.pXaXY.G L L 4 # f y K T Y Y D tXV ` ` N & >.X.$ r.1.$.~ / P x L F F.Y.iX-X] ! W T.BXBXBXBXBXBXBXBXBX",
"BXBXBXBXBXBXBXBXBXBX>XR W R P.fXiXuXB.b x L 7 1 # k L K I Q ` O._ ^ *.@.@.:./ M x J x x b b.J.F.F.N.E E R =XBXBXBXBXBXBXBXBXBXBX",
"BXBXBXBXBXBXBXBXBXBXBX4Xm W R G aXiXyXG.V.c k k k 5 1 # # 1 4 g g r r 7 4 r t z z z g V x.Z.S.Z.D W R  .4XBXBXBXBXBXBXBXBXBXBXBX",
"BXBXBXBXBXBXBXBXBXBXBXBXBX .L R L B.aXG.tXH.M.A f f k k j r 7 7 r r f k t j g g s C l.c.x.K.b.M L R H BXBXBXBXBXBXBXBXBXBXBXBXBX",
"BXBXBXBXBXBXBXBXBXBXBXBXBXBXW.v L b b B.tXF.F.H.A.n.A N h 7 7 e e e 7 8 8 N B j.v.v.z.z.C b L b L *XBXBXBXBXBXBXBXBXBXBXBXBXBXBX",
"BXBXBXBXBXBXBXBXBXBXBXBXBXBXBXBXI.k b x b V.H.F.A.J.A.S.Z.C.x.c.z.z.c.z.x.v.h.v.v.v.C l x b j I.BXBXBXBXBXBXBXBXBXBXBXBXBXBXBXBX",
"BXBXBXBXBXBXBXBXBXBXBXBXBXBXBXBXBXBXL.g k k k b b.M.J.A.S.S.C.C.c.x.C.c.z.l.g.N c j j x g ..BXBXBXBXBXBXBXBXBXBXBXBXBXBXBXBXBXBX",
"BXBXBXBXBXBXBXBXBXBXBXBXBXBXBXBXBXBXBXBXL.b f z j j f f c Z A A A Z Z c c f j g k g b m.BXBXBXBXBXBXBXBXBXBXBXBXBXBXBXBXBXBXBXBX",
"BXBXBXBXBXBXBXBXBXBXBXBXBXBXBXBXBXBXBXBXBXBXBXG G j 7 7 a r e f 7 f f 7 7 7 h  .H BXBXBXBXBXBXBXBXBXBXBXBXBXBXBXBXBXBXBXBXBXBXBX",
"BXBXBXBXBXBXBXBXBXBXBXBXBXBXBXBXBXBXBXBXBXBXBXBXBXBXBXU.H F F F D F G H P.BXBXBXBXBXBXBXBXBXBXBXBXBXBXBXBXBXBXBXBXBXBXBXBXBXBXBX"
};
