/* XPM */
static char *mktcoin32[] = {
/* columns rows colors chars-per-pixel */
"32 32 218 2 ",
"   c #594E2F",
".  c #6A5C3A",
"X  c #434447",
"o  c #555555",
"O  c #7B7654",
"+  c #6B654A",
"@  c #646362",
"#  c #7B756D",
"$  c #797979",
"%  c #7B7A76",
"&  c #726F68",
"*  c #8F6F3A",
"=  c #937135",
"-  c #99793A",
";  c #A07D3B",
":  c #81755A",
">  c #827A6F",
",  c #A4823B",
"<  c #AB833C",
"1  c #AC893F",
"2  c #B58B3D",
"3  c #D29B3B",
"4  c #CF983B",
"5  c #99845C",
"6  c #9D8145",
"7  c #AE924E",
"8  c #BC9C4E",
"9  c #A58B58",
"0  c #AE9557",
"q  c #B59759",
"w  c #A88949",
"e  c #BCA257",
"r  c #8E8468",
"t  c #9A8B6B",
"y  c #988868",
"u  c #968D7C",
"i  c #9B917C",
"p  c #A48E65",
"a  c #AB9666",
"s  c #B39C66",
"d  c #AB9B7C",
"f  c #A49774",
"g  c #BAA265",
"h  c #B8A776",
"j  c #C19D4B",
"k  c #C69B44",
"l  c #C19E51",
"z  c #C09F5B",
"x  c #D59F42",
"c  c #C7A64F",
"v  c #D6A244",
"b  c #DDAA4A",
"n  c #DAA645",
"m  c #C2A45C",
"M  c #C7AE5C",
"N  c #C8A956",
"B  c #D4AF58",
"V  c #DEB052",
"C  c #DFBF56",
"Z  c #D4B45D",
"A  c #D4B95E",
"S  c #D6B559",
"D  c #CCB054",
"F  c #E5BB5C",
"G  c #E9BE5E",
"H  c #E3B657",
"J  c #E8B44B",
"K  c #C7AB66",
"L  c #CDB564",
"P  c #C8B569",
"I  c #D5B462",
"U  c #DBBA63",
"Y  c #D2BB67",
"T  c #C7AE75",
"R  c #C7B175",
"E  c #C4B37E",
"W  c #D3BA72",
"Q  c #D4B876",
"!  c #D7AF64",
"~  c #EABD61",
"^  c #E2BB63",
"/  c #EBC05F",
"(  c #DAC26B",
")  c #D5C267",
"_  c #DCC377",
"`  c #E5C365",
"'  c #EDC464",
"]  c #E6C46E",
"[  c #ECC56B",
"{  c #EDCA69",
"}  c #E9CC67",
"|  c #F2CC6B",
" . c #F2C966",
".. c #E3C579",
"X. c #E4C97B",
"o. c #EBCA7D",
"O. c #E9C875",
"+. c #F4CE73",
"@. c #EED57C",
"#. c #F6D373",
"$. c #F8D674",
"%. c #F4D876",
"&. c #FAD876",
"*. c #F4D57B",
"=. c #F2DA7C",
"-. c #FADB7C",
";. c #F8D67A",
":. c #F4D06D",
">. c #FFE57E",
",. c #7B7C81",
"<. c #8C8A86",
"1. c #82858B",
"2. c #87898C",
"3. c #8B8D94",
"4. c #878890",
"5. c #93959B",
"6. c #999896",
"7. c #96938D",
"8. c #A49A8A",
"9. c #B7AA85",
"0. c #BEB28D",
"q. c #A5A39C",
"w. c #B5AC95",
"e. c #BCB297",
"r. c #A8A089",
"t. c #9A9DA7",
"y. c #9EA0A4",
"u. c #AFAEA7",
"i. c #A7A9A9",
"p. c #B8B4A7",
"a. c #AEAEB0",
"s. c #B2B6BD",
"d. c #BDBCBA",
"f. c #B8B8B3",
"g. c #B3AFA4",
"h. c #D3BC84",
"j. c #C7BA9B",
"k. c #C2BCAC",
"l. c #C3BAA1",
"z. c #BDC280",
"x. c #D9C688",
"c. c #DDD088",
"v. c #D8C898",
"b. c #DCD497",
"n. c #C9C08A",
"m. c #E4CB82",
"M. c #EACD87",
"N. c #EDD483",
"B. c #ECD58D",
"V. c #E6D682",
"C. c #F1D583",
"Z. c #F5D983",
"A. c #FADC84",
"S. c #F5DC8B",
"D. c #FBDE8C",
"F. c #EAD494",
"G. c #ECDB9B",
"H. c #E7D49E",
"J. c #F4DB93",
"K. c #FBDE93",
"L. c #F4DD9C",
"P. c #FDDF99",
"I. c #DFE291",
"U. c #FDE085",
"Y. c #F9E28A",
"T. c #E8E698",
"R. c #FCE094",
"E. c #FCE29B",
"W. c #FCED9C",
"Q. c #F4E797",
"!. c #F5EA92",
"~. c #CDC3A6",
"^. c #D9CAA5",
"/. c #DFD4AB",
"(. c #C5C3B7",
"). c #D4CBB6",
"_. c #DCD3BC",
"`. c #EFD8A4",
"'. c #E4D3A1",
"]. c #F4DDA6",
"[. c #F1DFB2",
"{. c #E3D6B7",
"}. c #FDE4A3",
"|. c #FDE4AA",
" X c #FFEAAE",
".X c #FAE6A6",
"XX c #EEE1B1",
"oX c #FCE6B3",
"OX c #FFE9B5",
"+X c #FEEBBC",
"@X c #F8E7BA",
"#X c #FFF0BB",
"$X c #EDE8A1",
"%X c #B8BBC3",
"&X c #BDC0C8",
"*X c #C2C5CC",
"=X c #CBC9C8",
"-X c #DBD6CA",
";X c #D4D2C9",
":X c #CDCDD4",
">X c #D3D3D3",
",X c #D3D4DD",
"<X c #DBDAD6",
"1X c #CDD0D5",
"2X c #E2DDCF",
"3X c #F8E9C4",
"4X c #F9F8C7",
"5X c #E6E3DD",
"6X c #F7ECD3",
"7X c #EFE5C3",
"8X c #DADDE2",
"9X c #DEE0E7",
"0X c #E7E7E7",
"qX c #FFF7E0",
"wX c #EDEDF1",
"eX c #FCFDFD",
"rX c #F6F6FA",
"tX c None",
/* pixels */
"tXtXtXtXtXtXtXtXtXtXtXtXtXX...m.o.Q M.tXtXtXtXtXtXtXtXtXtXtXtXtX",
"tXtXtXtXtXtXtXtXtXc.m.' F Q T h h s K !  .O.F.tXtXtXtXtXtXtXtXtX",
"tXtXtXtXtXtXtXtX..' h.l.%X%Xa.u.i.y.5.4.# p ^ ..tXtXtXtXtXtXtXtX",
"tXtXtXtXtXtXc.' _ (.*X~.h.[ ~ F H ~ +.Q 9.4.$ 9 [ m.tXtXtXtXtXtX",
"tXtXtXtXtXF.{ 0.s.v.` ` c c U U B B - w j +.9.1.# Z X.tXtXtXtXtX",
"tXtXtXtXXXX.q.u._  .Z _ E.D.A.S.Q +.| :.c = l O.<.% L o.tXtXtXtX",
"tXtXtXV.` 8.a.o.H B.oX}.E.R.C.0X;X] | | ' ' j * +.<.$ I B.tXtXtX",
"tXtXtX| i 6.L.A XXOX|.|..XB.R.h.h.+.o.`  .' G V * &.<.# } tXtXtX",
"tXtXC.a 3.m.D E.|.OXOX@X<Xk..XL.D.C.2Xk.{ { ' ~ V : @.1.: -.tXtX",
"tX`.) <.0.I -.E..X|.oXOXk.e.P.P.D.A.j.0.#.+. .' G 3 c j.1.I G.tX",
"tXB.a 3.Z.S D.K.E.}.|.oXOXoX|.E.E.D.S.*.$.#.| { ' / = A.4.y Y.tX",
"tX=.> 9.N >.A.D.P.E.}.oXoXOXoX|.}.E.D.D.-.$.#.#. .' S m w.& =.tX",
"tXm y.c.N -.=.A.D.E.E.}. X+XOX#X}.}.W.D.U.-.-.#.| { | 6 G.1.m T.",
"Q.s 5.!.c #.&.Y.,X  W./.>XO :XX 4X1X@ 2X:X,Xy.q #.:.| , W.2.0 T.",
"!.f a.L { :.$.U.9Xt.K ,X0XO 2XX 4X>Xd OX_.,.*.U.&.#.{ I A y.y !.",
"W.f p.L / { :.&.,X1X& %X0XO -XeX8X% OX}._.1.B.Z.*.&.#.A ) q.r !.",
"W.d d.Y H / ' *.>X@ eX@ 0X. ;X2.5X5.d x.).4.T s W -.$.U ( q.y W.",
"W.9.=XL F H G O.8X  s.r wX. <Xo H.rXo [.-X5.E L.D.D.-.` ) i.f W.",
"W.h *X=.j V H ^ ^.h.9.C._.h.^.e.W.).k.+X{.k.`.}.E.D.D.L !.5.h Q.",
"$XP 8XW.1 b J F M.X.J.N..XF.J.@XM.+X[.].+X6X`.|.E.E.D.e Q.5.P $X",
"tX=.d./.m x b b ^ O.M.C.S.A.Z.E.P.}.J.].|.3XoX`.].}.Q.M v.3.=.tX",
"tX!.0.>X( 2 v b H ^ ~ [ +.;.;.A.A.K.K.E.}.OXOXoXOX}._ } d.9.!.tX",
"tXT.Y ,Xb.0 3 v b V G ~ ' | #.&.A.A.D.P.E.}.|.+X+X@XD b.&X_ I.tX",
"tXtXV.e.<XU ; 3 v b V H ~  .| $.&.-.Z.D.K.E.}.|.qX7X_ 5X~.V.tXtX",
"tXtXtXI =X).e 1 3 n b V H ~ ' | $.-.Z.A.D.Y.E.|.F.H.6X0Xm.b.tXtX",
"tXtXtXc.P 1Xj.8 ; 3 v b Q s G ' | $.-.Y A.D.R.} S ^.eX7Xb.tXtXtX",
"tXtXtXtXW R 1Xj.l * k n > J p : K I $ + A.&.C N j.9Xb.W tXtXtXtX",
"tXtXtXtXtXP K =Xk.z ; - 4 n h.! I B M  .D j q g.d.T L tXtXtXtXtX",
"tXtXtXtXtXtXT j l.*Xq.s ; = = - , , < 2 9 i y.r.8 R tXtXtXtXtXtX",
"tXtXtXtXtXtXtXz.z z e.%Xa.8.f p t y u 2.3.i 0 m n.tXtXtXtXtXtXtX",
"tXtXtXtXtXtXtXtXtXR l w s d 8.8.8.i t 9 1 e h tXtXtXtXtXtXtXtXtX",
"tXtXtXtXtXtXtXtXtXtXtXtXs q 0 7 w 0 q h tXtXtXtXtXtXtXtXtXtXtXtX"
};
